<?xml version="1.0" encoding="UTF-8" standalone="no"?><!DOCTYPE svg PUBLIC "-//W3C//DTD SVG 1.1//EN" "http://www.w3.org/Graphics/SVG/1.1/DTD/svg11.dtd"><svg width="100%" height="100%" viewBox="0 0 595 781" version="1.1" xmlns="http://www.w3.org/2000/svg" xmlns:xlink="http://www.w3.org/1999/xlink" xml:space="preserve" xmlns:serif="http://www.serif.com/" style="fill-rule:evenodd;clip-rule:evenodd;stroke-linejoin:round;stroke-miterlimit:2;"><g id="Capa-1" serif:id="Capa 1"><path d="M186.276,619.649l0,32.736l-55.605,0l0,-32.736c0,-54.326 24.453,-108.079 55.232,-152.293c42.64,-61.25 95.953,-103.92 95.953,-103.92c9.639,-7.723 22.345,-7.545 31.827,0.446c0,0 53.044,44.681 95.469,106.068c30.823,44.6 55.172,97.973 55.172,149.698l0,32.736l-55.605,0l0,-32.736c0,-37.868 -20.13,-75.725 -42.7,-108.374c-24.013,-34.75 -51.859,-63.479 -68.875,-79.726c-16.935,15.593 -44.466,43.174 -68.227,77.306c-22.607,32.478 -42.64,70.889 -42.64,110.794" style="fill:#fff;"/><path d="M408.721,161.351l0,-32.736l55.605,0l0,32.736c0,54.326 -24.453,108.079 -55.232,152.293c-42.64,61.25 -95.953,103.92 -95.953,103.92c-9.639,7.723 -22.345,7.545 -31.827,-0.446c0,0 -53.044,-44.681 -95.469,-106.068c-30.823,-44.6 -55.172,-97.973 -55.172,-149.698l0,-32.736l55.605,0l0,32.736c0,37.868 20.137,75.725 42.697,108.377c24.017,34.746 51.863,63.475 68.879,79.722c16.935,-15.593 44.466,-43.174 68.227,-77.306c22.614,-32.478 42.64,-70.889 42.64,-110.794" style="fill:#fff;"/><path d="M170.988,580.366l0,-52.376l158.485,0c15.354,13.613 27.88,29.95 37.535,52.376l-196.02,0Z" style="fill:#fff;"/><path d="M424.008,200.634l0,52.376l-158.485,0c-15.354,-13.613 -26.876,-30.518 -36.146,-52.376l194.631,0Z" style="fill:#fff;"/></g></svg>