<?xml version="1.0" encoding="UTF-8" standalone="no"?><!DOCTYPE svg PUBLIC "-//W3C//DTD SVG 1.1//EN" "http://www.w3.org/Graphics/SVG/1.1/DTD/svg11.dtd"><svg width="100%" height="100%" viewBox="0 0 1566 1112" version="1.1" xmlns="http://www.w3.org/2000/svg" xmlns:xlink="http://www.w3.org/1999/xlink" xml:space="preserve" xmlns:serif="http://www.serif.com/" style="fill-rule:evenodd;clip-rule:evenodd;stroke-linejoin:round;stroke-miterlimit:2;"><g><g><path d="M178.031,829.73c0,-9.714 1.276,-19.036 3.827,-27.966c2.551,-8.929 6.157,-17.27 10.818,-25.022c4.661,-7.752 10.254,-14.792 16.779,-21.121c6.525,-6.329 13.738,-11.75 21.637,-16.264c7.899,-4.514 16.411,-7.997 25.537,-10.45c9.126,-2.453 18.644,-3.68 28.554,-3.68c9.911,0 19.429,1.227 28.554,3.68c9.126,2.453 17.663,5.937 25.611,10.45c7.948,4.514 15.209,9.935 21.784,16.264c6.574,6.329 12.192,13.37 16.853,21.121c4.661,7.752 8.267,16.093 10.818,25.022c2.551,8.929 3.827,18.251 3.827,27.966c0,9.616 -1.276,18.889 -3.827,27.819c-2.551,8.929 -6.157,17.246 -10.818,24.948c-4.661,7.703 -10.279,14.719 -16.853,21.048c-6.574,6.329 -13.836,11.75 -21.784,16.264c-7.948,4.514 -16.485,7.997 -25.611,10.45c-9.126,2.453 -18.644,3.68 -28.554,3.68c-9.911,0 -19.429,-1.227 -28.554,-3.68c-9.126,-2.453 -17.638,-5.937 -25.537,-10.45c-7.899,-4.514 -15.111,-9.935 -21.637,-16.264c-6.525,-6.329 -12.118,-13.345 -16.779,-21.048c-4.661,-7.703 -8.267,-16.019 -10.818,-24.948c-2.551,-8.929 -3.827,-18.202 -3.827,-27.819Zm26.052,0c0,7.654 0.957,14.964 2.87,21.931c1.913,6.967 4.636,13.468 8.169,19.502c3.533,6.035 7.776,11.505 12.732,16.411c4.955,4.906 10.426,9.101 16.411,12.585c5.986,3.483 12.437,6.182 19.355,8.095c6.918,1.913 14.106,2.87 21.563,2.87c7.556,0 14.792,-0.957 21.71,-2.87c6.918,-1.913 13.394,-4.612 19.429,-8.095c6.035,-3.483 11.53,-7.678 16.485,-12.585c4.955,-4.906 9.199,-10.377 12.732,-16.411c3.533,-6.035 6.255,-12.536 8.169,-19.502c1.913,-6.967 2.87,-14.277 2.87,-21.931c0,-11.481 -2.134,-22.201 -6.403,-32.161c-4.268,-9.96 -10.082,-18.619 -17.442,-25.979c-7.359,-7.359 -15.97,-13.124 -25.831,-17.295c-9.862,-4.17 -20.435,-6.255 -31.719,-6.255c-11.186,0 -21.71,2.085 -31.572,6.255c-9.862,4.17 -18.448,9.935 -25.758,17.295c-7.31,7.359 -13.1,16.019 -17.368,25.979c-4.268,9.96 -6.403,20.68 -6.403,32.161Z" style="fill:url(#_Radial1);fill-rule:nonzero;"/><path d="M624.519,929.965l-18.064,0l-100.797,-126.327l0,126.327l-21.315,0l0,-163.78l17.944,0l100.917,126.568l0,-126.568l21.315,0l0,163.78Z" style="fill:url(#_Radial2);fill-rule:nonzero;"/><path d="M824.186,893.235l-82.853,0l-15.535,36.73l-22.64,0l69.366,-163.78l20.472,0l69.366,163.78l-22.64,0l-15.535,-36.73Zm-75.026,-18.546l67.198,0l-32.876,-77.795l-0.723,-3.011l-0.723,3.011l-32.876,77.795Z" style="fill:url(#_Radial3);fill-rule:nonzero;"/><path d="M1081.417,929.965l-18.064,0l-100.797,-126.327l0,126.327l-21.315,0l0,-163.78l17.944,0l100.917,126.568l0,-126.568l21.315,0l0,163.78Z" style="fill:url(#_Radial4);fill-rule:nonzero;"/><path d="M1173.129,829.73c0,-9.714 1.276,-19.036 3.827,-27.966c2.551,-8.929 6.157,-17.27 10.818,-25.022c4.661,-7.752 10.254,-14.792 16.779,-21.121c6.525,-6.329 13.738,-11.75 21.637,-16.264c7.899,-4.514 16.411,-7.997 25.537,-10.45c9.126,-2.453 18.644,-3.68 28.554,-3.68c9.911,0 19.429,1.227 28.554,3.68c9.126,2.453 17.663,5.937 25.611,10.45c7.948,4.514 15.209,9.935 21.784,16.264c6.574,6.329 12.192,13.37 16.853,21.121c4.661,7.752 8.267,16.093 10.818,25.022c2.551,8.929 3.827,18.251 3.827,27.966c0,9.616 -1.276,18.889 -3.827,27.819c-2.551,8.929 -6.157,17.246 -10.818,24.948c-4.661,7.703 -10.279,14.719 -16.853,21.048c-6.574,6.329 -13.836,11.75 -21.784,16.264c-7.948,4.514 -16.485,7.997 -25.611,10.45c-9.126,2.453 -18.644,3.68 -28.554,3.68c-9.911,0 -19.429,-1.227 -28.554,-3.68c-9.126,-2.453 -17.638,-5.937 -25.537,-10.45c-7.899,-4.514 -15.111,-9.935 -21.637,-16.264c-6.525,-6.329 -12.118,-13.345 -16.779,-21.048c-4.661,-7.703 -8.267,-16.019 -10.818,-24.948c-2.551,-8.929 -3.827,-18.202 -3.827,-27.819Zm26.052,0c0,7.654 0.957,14.964 2.87,21.931c1.913,6.967 4.636,13.468 8.169,19.502c3.533,6.035 7.776,11.505 12.732,16.411c4.955,4.906 10.426,9.101 16.411,12.585c5.986,3.483 12.437,6.182 19.355,8.095c6.918,1.913 14.106,2.87 21.563,2.87c7.556,0 14.792,-0.957 21.71,-2.87c6.918,-1.913 13.394,-4.612 19.429,-8.095c6.035,-3.483 11.53,-7.678 16.485,-12.585c4.955,-4.906 9.199,-10.377 12.732,-16.411c3.533,-6.035 6.255,-12.536 8.169,-19.502c1.913,-6.967 2.87,-14.277 2.87,-21.931c0,-11.481 -2.134,-22.201 -6.403,-32.161c-4.268,-9.96 -10.082,-18.619 -17.442,-25.979c-7.359,-7.359 -15.97,-13.124 -25.831,-17.295c-9.862,-4.17 -20.435,-6.255 -31.719,-6.255c-11.186,0 -21.71,2.085 -31.572,6.255c-9.862,4.17 -18.448,9.935 -25.758,17.295c-7.31,7.359 -13.1,16.019 -17.368,25.979c-4.268,9.96 -6.403,20.68 -6.403,32.161Z" style="fill:url(#_Radial5);fill-rule:nonzero;"/></g><g><path d="M776.648,365.778c11.43,-3.438 23.501,3.053 26.941,14.487c3.44,11.434 -3.047,23.508 -14.477,26.946c-11.43,3.438 -23.501,-3.053 -26.941,-14.487c-3.44,-11.434 3.047,-23.508 14.477,-26.946Z" style="fill:url(#_Radial6);"/><path d="M752.625,251.543c-16.857,-16.721 -16.967,-43.981 -0.247,-60.838c16.721,-16.857 43.981,-16.967 60.838,-0.247c16.857,16.721 16.967,43.981 0.247,60.838c-16.721,16.857 -43.981,16.967 -60.838,0.247Z" style="fill:url(#_Radial7);"/><path d="M679.008,295.081c-23.464,-3.632 -39.564,-25.631 -35.932,-49.094c3.632,-23.464 25.631,-39.564 49.094,-35.932c23.464,3.632 39.564,25.631 35.932,49.094c-3.632,23.464 -25.631,39.564 -49.094,35.932Z" style="fill:url(#_Radial8);"/><path d="M644.999,373.556c-21.124,10.841 -47.075,2.493 -57.916,-18.631c-10.841,-21.124 -2.493,-47.075 18.631,-57.916c21.124,-10.841 47.075,-2.493 57.916,18.631c10.841,21.124 2.493,47.075 -18.631,57.916Z" style="fill:url(#_Radial9);"/><path d="M663.564,457.045c-10.729,21.181 -36.636,29.666 -57.816,18.937c-21.181,-10.729 -29.666,-36.636 -18.937,-57.816c10.729,-21.181 36.636,-29.666 57.816,-18.937c21.181,10.729 29.666,36.636 18.937,57.816Z" style="fill:url(#_Radial10);"/><path d="M727.624,513.712c3.756,23.444 -12.227,45.527 -35.671,49.284c-23.444,3.756 -45.527,-12.227 -49.284,-35.671c-3.756,-23.444 12.227,-45.527 35.671,-49.284c23.444,-3.756 45.527,12.227 49.284,35.671Z" style="fill:url(#_Radial11);"/><path d="M812.754,521.951c16.81,16.768 16.843,44.029 0.075,60.839c-16.768,16.81 -44.029,16.843 -60.839,0.075c-16.81,-16.768 -16.843,-44.029 -0.075,-60.839c16.768,-16.81 44.029,-16.843 60.839,-0.075Z" style="fill:url(#_Radial12);"/><path d="M886.493,478.62c23.453,3.698 39.492,25.742 35.793,49.196c-3.698,23.453 -25.742,39.492 -49.196,35.793c-23.453,-3.698 -39.492,-25.742 -35.793,-49.196c3.698,-23.453 25.742,-39.492 49.196,-35.793Z" style="fill:url(#_Radial13);"/><path d="M920.724,400.242c21.154,-10.781 47.082,-2.36 57.863,18.794c10.781,21.154 2.36,47.082 -18.794,57.863c-21.154,10.781 -47.082,2.36 -57.863,-18.794c-10.781,-21.154 -2.36,-47.082 18.794,-57.863Z" style="fill:url(#_Radial14);"/><path d="M902.394,316.701c10.789,-21.15 36.719,-29.563 57.87,-18.774c21.15,10.789 29.563,36.719 18.774,57.87c-10.789,21.15 -36.719,29.563 -57.87,18.774c-21.15,-10.789 -29.563,-36.719 -18.774,-57.87Z" style="fill:url(#_Radial15);"/><path d="M838.493,259.853c-3.69,-23.455 12.356,-45.493 35.81,-49.183c23.455,-3.69 45.493,12.356 49.183,35.81c3.69,23.455 -12.356,45.493 -35.81,49.183c-23.455,3.69 -45.493,-12.356 -49.183,-35.81Z" style="fill:url(#_Radial16);"/><path d="M684.913,314.035c9.434,-11.807 26.68,-13.734 38.487,-4.299c11.807,9.434 13.734,26.68 4.299,38.487c-9.434,11.807 -26.68,13.734 -38.487,4.299c-11.807,-9.434 -13.734,-26.68 -4.299,-38.487Z" style="fill:url(#_Radial17);"/><path d="M661.032,385.448c0.693,-15.097 13.514,-26.792 28.611,-26.098c15.097,0.693 26.792,13.514 26.098,28.611c-0.693,15.097 -13.514,26.792 -28.611,26.098c-15.097,-0.693 -26.792,-13.514 -26.098,-28.611Z" style="fill:url(#_Radial18);"/><path d="M683.683,457.261c-8.312,-12.622 -4.813,-29.618 7.809,-37.931c12.622,-8.312 29.618,-4.813 37.931,7.809c8.312,12.622 4.813,29.618 -7.809,37.931c-12.622,8.312 -29.618,4.813 -37.931,-7.809Z" style="fill:url(#_Radial19);"/><path d="M744.216,502.05c-14.144,-5.327 -21.302,-21.134 -15.975,-35.278c5.327,-14.144 21.134,-21.302 35.278,-15.975c14.144,5.327 21.302,21.134 15.975,35.278c-5.327,14.144 -21.134,21.302 -35.278,15.975Z" style="fill:url(#_Radial20);"/><path d="M819.514,502.709c-14.574,4.003 -29.655,-4.579 -33.658,-19.153c-4.003,-14.574 4.579,-29.655 19.153,-33.658c14.574,-4.003 29.655,4.579 33.658,19.153c4.003,14.574 -4.579,29.655 -19.153,33.658Z" style="fill:url(#_Radial21);"/><path d="M880.822,458.988c-9.438,11.804 -26.684,13.724 -38.488,4.286c-11.804,-9.438 -13.724,-26.684 -4.286,-38.488c9.438,-11.804 26.684,-13.724 38.488,-4.286c11.804,9.438 13.724,26.684 4.286,38.488Z" style="fill:url(#_Radial22);"/><path d="M904.727,387.583c-0.699,15.097 -13.523,26.787 -28.62,26.088c-15.097,-0.699 -26.787,-13.523 -26.088,-28.62c0.699,-15.097 13.523,-26.787 28.62,-26.088c15.097,0.699 26.787,13.523 26.088,28.62Z" style="fill:url(#_Radial23);"/><path d="M882.101,315.762c8.308,12.625 4.803,29.62 -7.823,37.928c-12.625,8.308 -29.62,4.803 -37.928,-7.823c-8.308,-12.625 -4.803,-29.62 7.823,-37.928c12.625,-8.308 29.62,-4.803 37.928,7.823Z" style="fill:url(#_Radial24);"/><path d="M821.584,270.953c14.142,5.332 21.294,21.142 15.962,35.283c-5.332,14.142 -21.142,21.294 -35.283,15.962c-14.142,-5.332 -21.294,-21.142 -15.962,-35.283c5.332,-14.142 21.142,-21.294 35.283,-15.962Z" style="fill:url(#_Radial25);"/><path d="M746.287,270.267c14.575,-3.998 29.654,4.59 33.652,19.165c3.998,14.575 -4.59,29.654 -19.165,33.652c-14.575,3.998 -29.654,-4.59 -33.652,-19.165c-3.998,-14.575 4.59,-29.654 19.165,-33.652Z" style="fill:url(#_Radial26);"/></g></g><defs><radialGradient id="_Radial1" cx="0" cy="0" r="1" gradientUnits="userSpaceOnUse" gradientTransform="matrix(0,-168.462295,168.462295,0,783.015823,524.254676)"><stop offset="0" style="stop-color:#48a6dc;stop-opacity:1"/><stop offset="1" style="stop-color:#22439b;stop-opacity:1"/></radialGradient><radialGradient id="_Radial2" cx="0" cy="0" r="1" gradientUnits="userSpaceOnUse" gradientTransform="matrix(0,-168.462295,168.462295,0,783.015823,524.254676)"><stop offset="0" style="stop-color:#48a6dc;stop-opacity:1"/><stop offset="1" style="stop-color:#22439b;stop-opacity:1"/></radialGradient><radialGradient id="_Radial3" cx="0" cy="0" r="1" gradientUnits="userSpaceOnUse" gradientTransform="matrix(0,-168.462295,168.462295,0,783.015823,524.254676)"><stop offset="0" style="stop-color:#48a6dc;stop-opacity:1"/><stop offset="1" style="stop-color:#22439b;stop-opacity:1"/></radialGradient><radialGradient id="_Radial4" cx="0" cy="0" r="1" gradientUnits="userSpaceOnUse" gradientTransform="matrix(0,-168.462295,168.462295,0,783.015823,524.254676)"><stop offset="0" style="stop-color:#48a6dc;stop-opacity:1"/><stop offset="1" style="stop-color:#22439b;stop-opacity:1"/></radialGradient><radialGradient id="_Radial5" cx="0" cy="0" r="1" gradientUnits="userSpaceOnUse" gradientTransform="matrix(0,-168.462295,168.462295,0,783.015823,524.254676)"><stop offset="0" style="stop-color:#48a6dc;stop-opacity:1"/><stop offset="1" style="stop-color:#22439b;stop-opacity:1"/></radialGradient><radialGradient id="_Radial6" cx="0" cy="0" r="1" gradientUnits="userSpaceOnUse" gradientTransform="matrix(-0,-287.344222,287.344222,0,782.951411,386.704365)"><stop offset="0" style="stop-color:#48a6dc;stop-opacity:1"/><stop offset="1" style="stop-color:#22439b;stop-opacity:1"/></radialGradient><radialGradient id="_Radial7" cx="0" cy="0" r="1" gradientUnits="userSpaceOnUse" gradientTransform="matrix(0,-287.344222,287.344222,0,782.951411,386.704365)"><stop offset="0" style="stop-color:#48a6dc;stop-opacity:1"/><stop offset="1" style="stop-color:#22439b;stop-opacity:1"/></radialGradient><radialGradient id="_Radial8" cx="0" cy="0" r="1" gradientUnits="userSpaceOnUse" gradientTransform="matrix(0,-287.344222,287.344222,0,782.951411,386.704365)"><stop offset="0" style="stop-color:#48a6dc;stop-opacity:1"/><stop offset="1" style="stop-color:#22439b;stop-opacity:1"/></radialGradient><radialGradient id="_Radial9" cx="0" cy="0" r="1" gradientUnits="userSpaceOnUse" gradientTransform="matrix(-0,-287.344222,287.344222,0,782.951411,386.704365)"><stop offset="0" style="stop-color:#48a6dc;stop-opacity:1"/><stop offset="1" style="stop-color:#22439b;stop-opacity:1"/></radialGradient><radialGradient id="_Radial10" cx="0" cy="0" r="1" gradientUnits="userSpaceOnUse" gradientTransform="matrix(0,-287.344222,287.344222,-0,782.951411,386.704365)"><stop offset="0" style="stop-color:#48a6dc;stop-opacity:1"/><stop offset="1" style="stop-color:#22439b;stop-opacity:1"/></radialGradient><radialGradient id="_Radial11" cx="0" cy="0" r="1" gradientUnits="userSpaceOnUse" gradientTransform="matrix(0,-287.344222,287.344222,0,782.951411,386.704365)"><stop offset="0" style="stop-color:#48a6dc;stop-opacity:1"/><stop offset="1" style="stop-color:#22439b;stop-opacity:1"/></radialGradient><radialGradient id="_Radial12" cx="0" cy="0" r="1" gradientUnits="userSpaceOnUse" gradientTransform="matrix(0,-287.344222,287.344222,0,782.951411,386.704365)"><stop offset="0" style="stop-color:#48a6dc;stop-opacity:1"/><stop offset="1" style="stop-color:#22439b;stop-opacity:1"/></radialGradient><radialGradient id="_Radial13" cx="0" cy="0" r="1" gradientUnits="userSpaceOnUse" gradientTransform="matrix(-0,-287.344222,287.344222,0,782.951411,386.704365)"><stop offset="0" style="stop-color:#48a6dc;stop-opacity:1"/><stop offset="1" style="stop-color:#22439b;stop-opacity:1"/></radialGradient><radialGradient id="_Radial14" cx="0" cy="0" r="1" gradientUnits="userSpaceOnUse" gradientTransform="matrix(0,-287.344222,287.344222,-0,782.951411,386.704365)"><stop offset="0" style="stop-color:#48a6dc;stop-opacity:1"/><stop offset="1" style="stop-color:#22439b;stop-opacity:1"/></radialGradient><radialGradient id="_Radial15" cx="0" cy="0" r="1" gradientUnits="userSpaceOnUse" gradientTransform="matrix(-0,-287.344222,287.344222,0,782.951411,386.704365)"><stop offset="0" style="stop-color:#48a6dc;stop-opacity:1"/><stop offset="1" style="stop-color:#22439b;stop-opacity:1"/></radialGradient><radialGradient id="_Radial16" cx="0" cy="0" r="1" gradientUnits="userSpaceOnUse" gradientTransform="matrix(0,-287.344222,287.344222,-0,782.951411,386.704365)"><stop offset="0" style="stop-color:#48a6dc;stop-opacity:1"/><stop offset="1" style="stop-color:#22439b;stop-opacity:1"/></radialGradient><radialGradient id="_Radial17" cx="0" cy="0" r="1" gradientUnits="userSpaceOnUse" gradientTransform="matrix(0,-287.344222,287.344222,0,782.951411,386.704365)"><stop offset="0" style="stop-color:#48a6dc;stop-opacity:1"/><stop offset="1" style="stop-color:#22439b;stop-opacity:1"/></radialGradient><radialGradient id="_Radial18" cx="0" cy="0" r="1" gradientUnits="userSpaceOnUse" gradientTransform="matrix(-0,-287.344222,287.344222,-0,782.951411,386.704365)"><stop offset="0" style="stop-color:#48a6dc;stop-opacity:1"/><stop offset="1" style="stop-color:#22439b;stop-opacity:1"/></radialGradient><radialGradient id="_Radial19" cx="0" cy="0" r="1" gradientUnits="userSpaceOnUse" gradientTransform="matrix(0,-287.344222,287.344222,0,782.951411,386.704365)"><stop offset="0" style="stop-color:#48a6dc;stop-opacity:1"/><stop offset="1" style="stop-color:#22439b;stop-opacity:1"/></radialGradient><radialGradient id="_Radial20" cx="0" cy="0" r="1" gradientUnits="userSpaceOnUse" gradientTransform="matrix(0,-287.344222,287.344222,0,782.951411,386.704365)"><stop offset="0" style="stop-color:#48a6dc;stop-opacity:1"/><stop offset="1" style="stop-color:#22439b;stop-opacity:1"/></radialGradient><radialGradient id="_Radial21" cx="0" cy="0" r="1" gradientUnits="userSpaceOnUse" gradientTransform="matrix(0,-287.344222,287.344222,-0,782.951411,386.704365)"><stop offset="0" style="stop-color:#48a6dc;stop-opacity:1"/><stop offset="1" style="stop-color:#22439b;stop-opacity:1"/></radialGradient><radialGradient id="_Radial22" cx="0" cy="0" r="1" gradientUnits="userSpaceOnUse" gradientTransform="matrix(0,-287.344222,287.344222,0,782.951411,386.704365)"><stop offset="0" style="stop-color:#48a6dc;stop-opacity:1"/><stop offset="1" style="stop-color:#22439b;stop-opacity:1"/></radialGradient><radialGradient id="_Radial23" cx="0" cy="0" r="1" gradientUnits="userSpaceOnUse" gradientTransform="matrix(-0,-287.344222,287.344222,-0,782.951411,386.704365)"><stop offset="0" style="stop-color:#48a6dc;stop-opacity:1"/><stop offset="1" style="stop-color:#22439b;stop-opacity:1"/></radialGradient><radialGradient id="_Radial24" cx="0" cy="0" r="1" gradientUnits="userSpaceOnUse" gradientTransform="matrix(0,-287.344222,287.344222,0,782.951411,386.704365)"><stop offset="0" style="stop-color:#48a6dc;stop-opacity:1"/><stop offset="1" style="stop-color:#22439b;stop-opacity:1"/></radialGradient><radialGradient id="_Radial25" cx="0" cy="0" r="1" gradientUnits="userSpaceOnUse" gradientTransform="matrix(0,-287.344222,287.344222,0,782.951411,386.704365)"><stop offset="0" style="stop-color:#48a6dc;stop-opacity:1"/><stop offset="1" style="stop-color:#22439b;stop-opacity:1"/></radialGradient><radialGradient id="_Radial26" cx="0" cy="0" r="1" gradientUnits="userSpaceOnUse" gradientTransform="matrix(0,-287.344222,287.344222,-0,782.951411,386.704365)"><stop offset="0" style="stop-color:#48a6dc;stop-opacity:1"/><stop offset="1" style="stop-color:#22439b;stop-opacity:1"/></radialGradient></defs></svg>